<?xml version="1.0" encoding="UTF-8"?>
<svg version="1.1" xmlns="http://www.w3.org/2000/svg" width="134" height="38">
<path d="M0 0 C5.07060405 2.69760613 9.01486934 6.86492052 10.83203125 12.31640625 C11.49720599 19.7750869 11.49634229 25.30189991 6.83203125 31.31640625 C2.26203618 35.88640132 -1.47903697 37.47365282 -7.91796875 37.62890625 C-14.37510323 37.55880467 -17.99886032 36.48551468 -22.6640625 31.8203125 C-27.31452244 26.5374954 -27.5188959 22.10597351 -27.4453125 15.328125 C-26.92148378 9.63978772 -24.3559427 6.18309529 -20.10546875 2.44140625 C-14.4332114 -1.66192886 -6.67039789 -2.10327861 0 0 Z " fill="#1D97F2" transform="translate(27.16796875,0.68359375)"/>
<path d="M0 0 C1 1 1 1 1.09765625 3.28515625 C1.08605469 4.20167969 1.07445313 5.11820313 1.0625 6.0625 C1.05347656 6.98160156 1.04445313 7.90070312 1.03515625 8.84765625 C1.02355469 9.55792969 1.01195313 10.26820312 1 11 C-0.32 11 -1.64 11 -3 11 C-3 8.36 -3 5.72 -3 3 C-3.99 3.495 -3.99 3.495 -5 4 C-5.40729228 6.32156597 -5.74438677 8.6568787 -6 11 C-7.32 11 -8.64 11 -10 11 C-10 8.36 -10 5.72 -10 3 C-10.99 3.33 -11.98 3.66 -13 4 C-13.33 6.31 -13.66 8.62 -14 11 C-15.32 11 -16.64 11 -18 11 C-18 7.37 -18 3.74 -18 0 C-12.02855035 -1.49286241 -6.03486242 -0.84469303 0 0 Z " fill="#000000" transform="translate(86,15)"/>
<path d="M0 0 C3.5 -0.3125 3.5 -0.3125 7 0 C9.32528287 2.32528287 9.29511025 2.84665898 9.3125 6 C9.32925781 6.70125 9.34601563 7.4025 9.36328125 8.125 C9.18345703 9.053125 9.18345703 9.053125 9 10 C6 12 6 12 2.9375 11.75 C0 11 0 11 -2 9 C-2.34490322 4.94738713 -2.30163882 3.45245824 0 0 Z M2 7 C6 8 6 8 6 8 Z " fill="#1D98F4" transform="translate(113,15)"/>
<path d="M0 0 C1.32 0 2.64 0 4 0 C4 2.64 4 5.28 4 8 C4.66 7.67 5.32 7.34 6 7 C6.40729228 4.67843403 6.74438677 2.3431213 7 0 C8.32 0 9.64 0 11 0 C11 3.63 11 7.26 11 11 C3.375 12.25 3.375 12.25 0 10 C-0.29296875 7.6171875 -0.29296875 7.6171875 -0.1875 4.875 C-0.16042969 3.96492188 -0.13335937 3.05484375 -0.10546875 2.1171875 C-0.07066406 1.41851563 -0.03585938 0.71984375 0 0 Z " fill="#000000" transform="translate(56,15)"/>
<path d="M0 0 C3.63 0 7.26 0 11 0 C11 0.99 11 1.98 11 3 C8.69 3 6.38 3 4 3 C4 3.99 4 4.98 4 6 C5.98 6 7.96 6 10 6 C10 6.99 10 7.98 10 9 C8.02 9 6.04 9 4 9 C4 10.98 4 12.96 4 15 C2.68 15 1.36 15 0 15 C0 10.05 0 5.1 0 0 Z " fill="#1D98F4" transform="translate(94,11)"/>
<path d="M0 0 C3.3 0 6.6 0 10 0 C10 0.99 10 1.98 10 3 C8.02 3 6.04 3 4 3 C4 3.99 4 4.98 4 6 C5.98 6 7.96 6 10 6 C10 6.99 10 7.98 10 9 C8.02 9 6.04 9 4 9 C4 10.98 4 12.96 4 15 C2.68 15 1.36 15 0 15 C0 10.05 0 5.1 0 0 Z " fill="#000000" transform="translate(45,11)"/>
<path d="M0 0 C1.61648437 0.04060547 1.61648437 0.04060547 3.265625 0.08203125 C4.08546875 0.11683594 4.9053125 0.15164063 5.75 0.1875 C5.42 1.1775 5.09 2.1675 4.75 3.1875 C2.77 2.5275 0.79 1.8675 -1.25 1.1875 C-1.58 3.4975 -1.91 5.8075 -2.25 8.1875 C-0.93 8.1875 0.39 8.1875 1.75 8.1875 C1.75 8.8475 1.75 9.5075 1.75 10.1875 C0.1 10.1875 -1.55 10.1875 -3.25 10.1875 C-3.3325 11.239375 -3.415 12.29125 -3.5 13.375 C-4.3257769 17.57269926 -5.02804103 19.389483 -8.25 22.1875 C-12 22.5 -12 22.5 -15.25 22.1875 C-15.25 21.5275 -15.25 20.8675 -15.25 20.1875 C-13.27 20.1875 -11.29 20.1875 -9.25 20.1875 C-6.67113193 14.13276627 -5.63979206 8.74675943 -5.25 2.1875 C-8.22 4.6625 -8.22 4.6625 -11.25 7.1875 C-10.89354476 4.60319949 -10.47873858 3.41192276 -8.59375 1.5625 C-5.55847249 -0.21819614 -3.49290545 -0.11389909 0 0 Z " fill="#051B2C" transform="translate(25.25,9.8125)"/>
<path d="M0 0 C0.804375 0.185625 1.60875 0.37125 2.4375 0.5625 C3.283125 0.706875 4.12875 0.85125 5 1 C5.33 0.67 5.66 0.34 6 0 C7.66617115 -0.04063832 9.33388095 -0.042721 11 0 C10.649375 0.5775 10.29875 1.155 9.9375 1.75 C8.8275551 4.41386776 9.05410055 5.33428337 10 8 C10.33 8.99 10.66 9.98 11 11 C9.35 11 7.7 11 6 11 C6 10.34 6 9.68 6 9 C5.34 9 4.68 9 4 9 C4 9.66 4 10.32 4 11 C2.68 11 1.36 11 0 11 C0.556875 9.6696875 0.556875 9.6696875 1.125 8.3125 C2.10784228 4.59173995 1.76062164 3.32561865 0 0 Z " fill="#1D99F4" transform="translate(123,15)"/>
<path d="M0 0 C1.32 0 2.64 0 4 0 C4 4.95 4 9.9 4 15 C2.68 15 1.36 15 0 15 C0 10.05 0 5.1 0 0 Z " fill="#1D97F4" transform="translate(106,11)"/>
<path d="M0 0 C1.32 0 2.64 0 4 0 C4 3.63 4 7.26 4 11 C2.68 11 1.36 11 0 11 C0 7.37 0 3.74 0 0 Z " fill="#000000" transform="translate(89,15)"/>
<path d="M0 0 C1.61648437 0.04060547 1.61648437 0.04060547 3.265625 0.08203125 C4.08546875 0.11683594 4.9053125 0.15164063 5.75 0.1875 C5.42 1.1775 5.09 2.1675 4.75 3.1875 C2.77 2.5275 0.79 1.8675 -1.25 1.1875 C-1.58 2.1775 -1.91 3.1675 -2.25 4.1875 C-3.24 3.5275 -4.23 2.8675 -5.25 2.1875 C-8.22 4.6625 -8.22 4.6625 -11.25 7.1875 C-10.89354476 4.60319949 -10.47873858 3.41192276 -8.59375 1.5625 C-5.55847249 -0.21819614 -3.49290545 -0.11389909 0 0 Z " fill="#07243B" transform="translate(25.25,9.8125)"/>
<path d="M0 0 C0.99 0.33 1.98 0.66 3 1 C2.67 1.99 2.34 2.98 2 4 C1.01 4 0.02 4 -1 4 C-0.67 2.68 -0.34 1.36 0 0 Z " fill="#000000" transform="translate(90,10)"/>
</svg>
